<svg width="161" height="41" viewBox="0 0 161 41" fill="none" xmlns="http://www.w3.org/2000/svg">
<g clip-path="url(#clip0_108_21748)">
<path d="M76.8203 13.5762C72.3908 13.5762 69.0558 15.2314 66.7713 17.6361C64.4868 15.229 61.1537 13.5762 56.7267 13.5762C47.3909 13.5762 42.9082 20.9223 42.9082 27.1598V27.2055C42.9082 33.4892 47.3909 40.8348 56.7267 40.8348C61.1552 40.8348 64.4893 39.1815 66.7733 36.7725C69.0577 39.1815 72.3913 40.8348 76.8194 40.8348C86.1547 40.8348 90.6378 33.4887 90.6378 27.2055C90.6393 20.9223 86.1561 13.5762 76.8203 13.5762ZM56.7276 33.6729C53.4004 33.6729 50.5811 30.9471 50.5811 27.2512V27.205C50.5811 23.463 53.4004 20.7371 56.7276 20.7371C60.0549 20.7371 62.8746 23.4625 62.8746 27.205C62.8746 30.9475 60.0549 33.6729 56.7276 33.6729ZM76.8203 33.6729C73.4926 33.6729 70.6738 30.9471 70.6738 27.2512V27.205C70.6738 23.463 73.4931 20.7371 76.8203 20.7371C80.1476 20.7371 82.9673 23.4625 82.9673 27.205C82.9673 30.9475 80.1481 33.6729 76.8203 33.6729Z" fill="url(#paint0_linear_108_21748)"/>
<path fill-rule="evenodd" clip-rule="evenodd" d="M152.253 40.018V37.279H152.17V22.3472L152.096 22.5756V22.3249L147.071 22.06C147.089 22.0785 147.128 22.1207 147.183 22.1825C146.939 22.1538 146.687 22.1378 146.423 22.1378C145.598 22.1378 144.868 22.2782 144.234 22.5591C143.6 22.84 143.063 23.2093 142.62 23.6667C142.178 24.1249 141.838 24.6644 141.603 25.2845C141.367 25.9046 141.249 26.5699 141.249 27.2785C141.249 28.7262 141.698 29.9377 142.597 30.9131C143.497 31.8875 144.772 32.3749 146.423 32.3749C147.464 32.3749 148.354 32.181 149.096 31.7942L146.189 40.7294C145.699 40.7984 145.204 40.8354 144.706 40.8354C142.88 40.8354 141.205 40.4821 139.684 39.7779C138.161 39.0737 136.848 38.1207 135.743 36.9189C135.067 36.185 134.485 35.3759 133.995 34.4924V40.0184H125.248V28.246C125.248 27.6065 125.232 26.8936 125.2 26.1087C125.168 25.3243 125.048 24.5954 124.839 23.9223C124.63 23.2497 124.278 22.6816 123.782 22.2165C123.285 21.7529 122.572 21.5201 121.643 21.5201C120.617 21.5201 119.824 21.7359 119.264 22.1684C118.704 22.6009 118.295 23.1462 118.038 23.8022C117.781 24.4588 117.622 25.1795 117.558 25.9639C117.493 26.7492 117.462 27.5098 117.462 28.2456V40.0175H108.715V28.246C108.715 27.5739 108.691 26.8294 108.643 26.0125C108.595 25.1951 108.45 24.4433 108.21 23.7546C107.97 23.066 107.586 22.4891 107.057 22.0245C106.528 21.5604 105.783 21.3271 104.822 21.3271C103.86 21.3271 103.116 21.5599 102.587 22.0245C102.058 22.4891 101.674 23.066 101.434 23.7546C101.193 24.4433 101.049 25.1955 101.001 26.0125C100.952 26.8294 100.929 27.5739 100.929 28.246V40.018H92.1822V15.3705H100.929V18.4453H101.025C102.05 17.0685 103.204 16.0751 104.485 15.4662C105.767 14.8587 107.209 14.5535 108.811 14.5535C110.606 14.5535 112.231 14.9302 113.69 15.683C115.147 16.4357 116.325 17.6283 117.222 19.2622C118.055 17.7251 119.233 16.5563 120.755 15.7549C122.276 14.9545 123.886 14.5535 125.584 14.5535C127.155 14.5535 128.476 14.7941 129.55 15.2743C130.623 15.7549 131.489 16.4275 132.145 17.2925C132.802 18.1571 133.274 19.1898 133.563 20.3911C133.637 20.6983 133.7 21.0127 133.755 21.3335C134.285 20.2813 134.929 19.3254 135.695 18.4696C136.768 17.2682 138.066 16.3157 139.588 15.6106C141.11 14.9064 142.785 14.5535 144.611 14.5535C144.995 14.5535 145.378 14.574 145.757 14.6119H160.793V14.7975H161V40.018H152.253ZM32.3316 0.13984H41.0785V40.018H32.3316V0.13984ZM21.8585 29.8955L12.2769 39.9567H0L13.1437 26.6695L0.770265 15.2606H12.7586L21.8585 24.1667V-0.00012207H30.6209V39.9567H21.8585V29.8955Z" fill="black"/>
</g>
<defs>
<linearGradient id="paint0_linear_108_21748" x1="49.5991" y1="39.8696" x2="87.8858" y2="11.4559" gradientUnits="userSpaceOnUse">
<stop stop-color="#DF3636"/>
<stop offset="1" stop-color="#00C1D7"/>
</linearGradient>
<clipPath id="clip0_108_21748">
<rect width="161" height="40.8209" fill="white"/>
</clipPath>
</defs>
</svg>
