<svg width="161" height="41" viewBox="0 0 161 41" fill="none" xmlns="http://www.w3.org/2000/svg">
<g clip-path="url(#clip0_108_21566)">
<path d="M76.8203 13.5764C72.3908 13.5764 69.0558 15.2317 66.7713 17.6363C64.4868 15.2292 61.1537 13.5764 56.7267 13.5764C47.3909 13.5764 42.9082 20.9225 42.9082 27.1601V27.2057C42.9082 33.4895 47.3909 40.8351 56.7267 40.8351C61.1552 40.8351 64.4893 39.1818 66.7733 36.7728C69.0577 39.1818 72.3913 40.8351 76.8194 40.8351C86.1547 40.8351 90.6378 33.489 90.6378 27.2057C90.6393 20.9225 86.1561 13.5764 76.8203 13.5764ZM56.7276 33.6732C53.4004 33.6732 50.5811 30.9473 50.5811 27.2514V27.2053C50.5811 23.4632 53.4004 20.7373 56.7276 20.7373C60.0549 20.7373 62.8746 23.4627 62.8746 27.2053C62.8746 30.9478 60.0549 33.6732 56.7276 33.6732ZM76.8203 33.6732C73.4926 33.6732 70.6738 30.9473 70.6738 27.2514V27.2053C70.6738 23.4632 73.4931 20.7373 76.8203 20.7373C80.1476 20.7373 82.9673 23.4627 82.9673 27.2053C82.9673 30.9478 80.1481 33.6732 76.8203 33.6732Z" fill="url(#paint0_linear_108_21566)"/>
<path fill-rule="evenodd" clip-rule="evenodd" d="M152.253 40.0181V37.2791H152.17V22.3473L152.096 22.5757V22.325L147.071 22.0601C147.089 22.0786 147.128 22.1209 147.183 22.1826C146.939 22.1539 146.687 22.1379 146.423 22.1379C145.598 22.1379 144.868 22.2783 144.234 22.5592C143.6 22.8401 143.063 23.2095 142.62 23.6668C142.178 24.1251 141.838 24.6645 141.603 25.2846C141.367 25.9047 141.249 26.57 141.249 27.2786C141.249 28.7263 141.698 29.9379 142.597 30.9132C143.497 31.8876 144.772 32.3751 146.423 32.3751C147.464 32.3751 148.354 32.1812 149.096 31.7943L146.189 40.7296C145.699 40.7986 145.204 40.8355 144.706 40.8355C142.88 40.8355 141.205 40.4822 139.684 39.778C138.161 39.0738 136.848 38.1208 135.743 36.919C135.067 36.1852 134.485 35.376 133.995 34.4925V40.0186H125.248V28.2462C125.248 27.6066 125.232 26.8937 125.2 26.1088C125.168 25.3245 125.048 24.5955 124.839 23.9224C124.63 23.2498 124.278 22.6817 123.782 22.2166C123.285 21.753 122.572 21.5202 121.643 21.5202C120.617 21.5202 119.824 21.736 119.264 22.1685C118.704 22.601 118.295 23.1463 118.038 23.8024C117.781 24.4589 117.622 25.1796 117.558 25.964C117.493 26.7493 117.462 27.5099 117.462 28.2457V40.0176H108.715V28.2462C108.715 27.5741 108.691 26.8295 108.643 26.0126C108.595 25.1952 108.45 24.4434 108.21 23.7547C107.97 23.0661 107.586 22.4892 107.057 22.0246C106.528 21.5605 105.783 21.3273 104.822 21.3273C103.86 21.3273 103.116 21.56 102.587 22.0246C102.058 22.4892 101.674 23.0661 101.434 23.7547C101.193 24.4434 101.049 25.1957 101.001 26.0126C100.952 26.8295 100.929 27.5741 100.929 28.2462V40.0181H92.1822V15.3706H100.929V18.4454H101.025C102.05 17.0686 103.204 16.0753 104.485 15.4663C105.767 14.8589 107.209 14.5537 108.811 14.5537C110.606 14.5537 112.231 14.9303 113.69 15.6831C115.147 16.4359 116.325 17.6285 117.222 19.2623C118.055 17.7252 119.233 16.5564 120.755 15.755C122.276 14.9546 123.886 14.5537 125.584 14.5537C127.155 14.5537 128.476 14.7942 129.55 15.2744C130.623 15.755 131.489 16.4276 132.145 17.2927C132.802 18.1572 133.274 19.1899 133.563 20.3913C133.637 20.6984 133.7 21.0128 133.755 21.3336C134.285 20.2814 134.929 19.3255 135.695 18.4697C136.768 17.2684 138.066 16.3158 139.588 15.6107C141.11 14.9065 142.785 14.5537 144.611 14.5537C144.995 14.5537 145.378 14.5741 145.757 14.612H160.793V14.7976H161V40.0181H152.253ZM32.3316 0.139962H41.0785V40.0181H32.3316V0.139962ZM21.8585 29.8956L12.2769 39.9568H0L13.1437 26.6696L0.770265 15.2608H12.7586L21.8585 24.1668V0H30.6209V39.9568H21.8585V29.8956Z" fill="white"/>
</g>
<defs>
<linearGradient id="paint0_linear_108_21566" x1="49.5991" y1="39.8698" x2="87.8858" y2="11.4562" gradientUnits="userSpaceOnUse">
<stop stop-color="#DF3636"/>
<stop offset="1" stop-color="#00C1D7"/>
</linearGradient>
<clipPath id="clip0_108_21566">
<rect width="161" height="40.8209" fill="white"/>
</clipPath>
</defs>
</svg>
